<mxfile host="Electron" agent="Mozilla/5.0 (Windows NT 10.0; Win64; x64) AppleWebKit/537.36 (KHTML, like Gecko) draw.io/24.7.5 Chrome/126.0.6478.183 Electron/31.3.0 Safari/537.36" version="24.7.5">
  <diagram name="Page-1" id="tWY4j0r8ymH5-y-h1fuN">
    <mxGraphModel dx="628" dy="828" grid="1" gridSize="10" guides="1" tooltips="1" connect="1" arrows="1" fold="1" page="1" pageScale="1" pageWidth="850" pageHeight="1100" math="0" shadow="0">
      <root>
        <mxCell id="0" />
        <mxCell id="1" parent="0" />
        <mxCell id="cOBOUD79xygJmneYznUS-6" style="edgeStyle=orthogonalEdgeStyle;rounded=0;orthogonalLoop=1;jettySize=auto;html=1;exitX=0.5;exitY=1;exitDx=0;exitDy=0;" edge="1" parent="1" source="cOBOUD79xygJmneYznUS-1" target="cOBOUD79xygJmneYznUS-2">
          <mxGeometry relative="1" as="geometry" />
        </mxCell>
        <mxCell id="cOBOUD79xygJmneYznUS-1" value="start" style="rounded=1;whiteSpace=wrap;html=1;" vertex="1" parent="1">
          <mxGeometry x="150" y="120" width="120" height="60" as="geometry" />
        </mxCell>
        <mxCell id="cOBOUD79xygJmneYznUS-7" value="" style="edgeStyle=orthogonalEdgeStyle;rounded=0;orthogonalLoop=1;jettySize=auto;html=1;" edge="1" parent="1" source="cOBOUD79xygJmneYznUS-2" target="cOBOUD79xygJmneYznUS-3">
          <mxGeometry relative="1" as="geometry" />
        </mxCell>
        <mxCell id="cOBOUD79xygJmneYznUS-2" value="x=int &#39;how old are you?18&#39;" style="shape=card;whiteSpace=wrap;html=1;" vertex="1" parent="1">
          <mxGeometry x="140" y="260" width="140" height="100" as="geometry" />
        </mxCell>
        <mxCell id="cOBOUD79xygJmneYznUS-8" value="" style="edgeStyle=orthogonalEdgeStyle;rounded=0;orthogonalLoop=1;jettySize=auto;html=1;" edge="1" parent="1" source="cOBOUD79xygJmneYznUS-3" target="cOBOUD79xygJmneYznUS-4">
          <mxGeometry relative="1" as="geometry" />
        </mxCell>
        <mxCell id="cOBOUD79xygJmneYznUS-3" value="print(x)" style="shape=document;whiteSpace=wrap;html=1;boundedLbl=1;" vertex="1" parent="1">
          <mxGeometry x="150" y="440" width="120" height="80" as="geometry" />
        </mxCell>
        <mxCell id="cOBOUD79xygJmneYznUS-9" value="" style="edgeStyle=orthogonalEdgeStyle;rounded=0;orthogonalLoop=1;jettySize=auto;html=1;" edge="1" parent="1" source="cOBOUD79xygJmneYznUS-4" target="cOBOUD79xygJmneYznUS-5">
          <mxGeometry relative="1" as="geometry" />
        </mxCell>
        <mxCell id="cOBOUD79xygJmneYznUS-4" value="print(x)" style="shape=document;whiteSpace=wrap;html=1;boundedLbl=1;" vertex="1" parent="1">
          <mxGeometry x="150" y="560" width="120" height="80" as="geometry" />
        </mxCell>
        <mxCell id="cOBOUD79xygJmneYznUS-5" value="end" style="rounded=1;whiteSpace=wrap;html=1;" vertex="1" parent="1">
          <mxGeometry x="150" y="900" width="120" height="60" as="geometry" />
        </mxCell>
        <mxCell id="cOBOUD79xygJmneYznUS-10" value="print(x)" style="shape=document;whiteSpace=wrap;html=1;boundedLbl=1;" vertex="1" parent="1">
          <mxGeometry x="150" y="710" width="120" height="80" as="geometry" />
        </mxCell>
      </root>
    </mxGraphModel>
  </diagram>
</mxfile>
